<mxfile host="Electron" modified="2024-02-01T16:34:26.617Z" agent="Mozilla/5.0 (X11; Linux x86_64) AppleWebKit/537.36 (KHTML, like Gecko) draw.io/23.0.2 Chrome/120.0.6099.109 Electron/28.1.0 Safari/537.36" etag="b8IqLLk-dRfMgOdro9bi" version="23.0.2" type="device">
  <diagram name="Page-1" id="xVZYIzdE0PgL39nJ_XMh">
    <mxGraphModel dx="776" dy="1204" grid="1" gridSize="10" guides="1" tooltips="1" connect="1" arrows="1" fold="1" page="1" pageScale="1" pageWidth="850" pageHeight="1100" math="0" shadow="0">
      <root>
        <mxCell id="0" />
        <mxCell id="1" parent="0" />
        <mxCell id="Leb5FjgCmEvb_Lq6FhGN-1" value="" style="group" vertex="1" connectable="0" parent="1">
          <mxGeometry x="40" y="40" width="630" height="320" as="geometry" />
        </mxCell>
        <mxCell id="Xsh8FOBN77qZL_Iael6g-1" value="movie" style="swimlane;childLayout=stackLayout;horizontal=1;startSize=50;horizontalStack=0;rounded=1;fontSize=14;fontStyle=0;strokeWidth=2;resizeParent=0;resizeLast=1;shadow=0;dashed=0;align=center;arcSize=4;whiteSpace=wrap;html=1;" parent="Leb5FjgCmEvb_Lq6FhGN-1" vertex="1">
          <mxGeometry width="160" height="159" as="geometry" />
        </mxCell>
        <mxCell id="Xsh8FOBN77qZL_Iael6g-2" value="-unique_id&lt;br&gt;+title&lt;br&gt;+synopsis&lt;br&gt;+rate" style="align=left;strokeColor=none;fillColor=none;spacingLeft=4;fontSize=12;verticalAlign=top;resizable=0;rotatable=0;part=1;html=1;" parent="Xsh8FOBN77qZL_Iael6g-1" vertex="1">
          <mxGeometry y="50" width="160" height="109" as="geometry" />
        </mxCell>
        <mxCell id="Xsh8FOBN77qZL_Iael6g-3" value="category" style="swimlane;childLayout=stackLayout;horizontal=1;startSize=50;horizontalStack=0;rounded=1;fontSize=14;fontStyle=0;strokeWidth=2;resizeParent=0;resizeLast=1;shadow=0;dashed=0;align=center;arcSize=4;whiteSpace=wrap;html=1;" parent="Leb5FjgCmEvb_Lq6FhGN-1" vertex="1">
          <mxGeometry x="180" width="160" height="120" as="geometry" />
        </mxCell>
        <mxCell id="Xsh8FOBN77qZL_Iael6g-4" value="+unique_id&lt;br&gt;+name" style="align=left;strokeColor=none;fillColor=none;spacingLeft=4;fontSize=12;verticalAlign=top;resizable=0;rotatable=0;part=1;html=1;" parent="Xsh8FOBN77qZL_Iael6g-3" vertex="1">
          <mxGeometry y="50" width="160" height="70" as="geometry" />
        </mxCell>
        <mxCell id="Xsh8FOBN77qZL_Iael6g-5" value="detail" style="swimlane;childLayout=stackLayout;horizontal=1;startSize=50;horizontalStack=0;rounded=1;fontSize=14;fontStyle=0;strokeWidth=2;resizeParent=0;resizeLast=1;shadow=0;dashed=0;align=center;arcSize=4;whiteSpace=wrap;html=1;" parent="Leb5FjgCmEvb_Lq6FhGN-1" vertex="1">
          <mxGeometry x="360" width="160" height="159" as="geometry" />
        </mxCell>
        <mxCell id="Xsh8FOBN77qZL_Iael6g-6" value="-unique_id&lt;br&gt;+release_date&lt;br&gt;+origin&lt;br&gt;+language&lt;br&gt;+create_date&lt;br&gt;+modification_date" style="align=left;strokeColor=none;fillColor=none;spacingLeft=4;fontSize=12;verticalAlign=top;resizable=0;rotatable=0;part=1;html=1;" parent="Xsh8FOBN77qZL_Iael6g-5" vertex="1">
          <mxGeometry y="50" width="160" height="109" as="geometry" />
        </mxCell>
        <mxCell id="Xsh8FOBN77qZL_Iael6g-13" value="movies_list" style="shape=table;startSize=30;container=1;collapsible=1;childLayout=tableLayout;fixedRows=1;rowLines=0;fontStyle=1;align=center;resizeLast=1;html=1;" parent="Leb5FjgCmEvb_Lq6FhGN-1" vertex="1">
          <mxGeometry y="200" width="630" height="120" as="geometry" />
        </mxCell>
        <mxCell id="Xsh8FOBN77qZL_Iael6g-14" value="" style="shape=tableRow;horizontal=0;startSize=0;swimlaneHead=0;swimlaneBody=0;fillColor=none;collapsible=0;dropTarget=0;points=[[0,0.5],[1,0.5]];portConstraint=eastwest;top=0;left=0;right=0;bottom=1;" parent="Xsh8FOBN77qZL_Iael6g-13" vertex="1">
          <mxGeometry y="30" width="630" height="30" as="geometry" />
        </mxCell>
        <mxCell id="Xsh8FOBN77qZL_Iael6g-15" value="PK" style="shape=partialRectangle;connectable=0;fillColor=none;top=0;left=0;bottom=0;right=0;fontStyle=1;overflow=hidden;whiteSpace=wrap;html=1;" parent="Xsh8FOBN77qZL_Iael6g-14" vertex="1">
          <mxGeometry width="30" height="30" as="geometry">
            <mxRectangle width="30" height="30" as="alternateBounds" />
          </mxGeometry>
        </mxCell>
        <mxCell id="Xsh8FOBN77qZL_Iael6g-16" value="unique_public_id" style="shape=partialRectangle;connectable=0;fillColor=none;top=0;left=0;bottom=0;right=0;align=left;spacingLeft=6;fontStyle=5;overflow=hidden;whiteSpace=wrap;html=1;" parent="Xsh8FOBN77qZL_Iael6g-14" vertex="1">
          <mxGeometry x="30" width="150" height="30" as="geometry">
            <mxRectangle width="150" height="30" as="alternateBounds" />
          </mxGeometry>
        </mxCell>
        <mxCell id="Xsh8FOBN77qZL_Iael6g-26" value="movie_id" style="shape=partialRectangle;connectable=0;fillColor=none;top=0;left=0;bottom=0;right=0;align=left;spacingLeft=6;fontStyle=5;overflow=hidden;whiteSpace=wrap;html=1;" parent="Xsh8FOBN77qZL_Iael6g-14" vertex="1">
          <mxGeometry x="180" width="150" height="30" as="geometry">
            <mxRectangle width="150" height="30" as="alternateBounds" />
          </mxGeometry>
        </mxCell>
        <mxCell id="Xsh8FOBN77qZL_Iael6g-42" value="categories_ids" style="shape=partialRectangle;connectable=0;fillColor=none;top=0;left=0;bottom=0;right=0;align=left;spacingLeft=6;fontStyle=5;overflow=hidden;whiteSpace=wrap;html=1;" parent="Xsh8FOBN77qZL_Iael6g-14" vertex="1">
          <mxGeometry x="330" width="150" height="30" as="geometry">
            <mxRectangle width="150" height="30" as="alternateBounds" />
          </mxGeometry>
        </mxCell>
        <mxCell id="Xsh8FOBN77qZL_Iael6g-45" value="detail_id" style="shape=partialRectangle;connectable=0;fillColor=none;top=0;left=0;bottom=0;right=0;align=left;spacingLeft=6;fontStyle=5;overflow=hidden;whiteSpace=wrap;html=1;" parent="Xsh8FOBN77qZL_Iael6g-14" vertex="1">
          <mxGeometry x="480" width="150" height="30" as="geometry">
            <mxRectangle width="150" height="30" as="alternateBounds" />
          </mxGeometry>
        </mxCell>
        <mxCell id="Xsh8FOBN77qZL_Iael6g-17" value="" style="shape=tableRow;horizontal=0;startSize=0;swimlaneHead=0;swimlaneBody=0;fillColor=none;collapsible=0;dropTarget=0;points=[[0,0.5],[1,0.5]];portConstraint=eastwest;top=0;left=0;right=0;bottom=0;" parent="Xsh8FOBN77qZL_Iael6g-13" vertex="1">
          <mxGeometry y="60" width="630" height="30" as="geometry" />
        </mxCell>
        <mxCell id="Xsh8FOBN77qZL_Iael6g-18" value="" style="shape=partialRectangle;connectable=0;fillColor=none;top=0;left=0;bottom=0;right=0;editable=1;overflow=hidden;whiteSpace=wrap;html=1;" parent="Xsh8FOBN77qZL_Iael6g-17" vertex="1">
          <mxGeometry width="30" height="30" as="geometry">
            <mxRectangle width="30" height="30" as="alternateBounds" />
          </mxGeometry>
        </mxCell>
        <mxCell id="Xsh8FOBN77qZL_Iael6g-19" value="89ajsd8s" style="shape=partialRectangle;connectable=0;fillColor=none;top=0;left=0;bottom=0;right=0;align=left;spacingLeft=6;overflow=hidden;whiteSpace=wrap;html=1;" parent="Xsh8FOBN77qZL_Iael6g-17" vertex="1">
          <mxGeometry x="30" width="150" height="30" as="geometry">
            <mxRectangle width="150" height="30" as="alternateBounds" />
          </mxGeometry>
        </mxCell>
        <mxCell id="Xsh8FOBN77qZL_Iael6g-27" value="1" style="shape=partialRectangle;connectable=0;fillColor=none;top=0;left=0;bottom=0;right=0;align=left;spacingLeft=6;overflow=hidden;whiteSpace=wrap;html=1;" parent="Xsh8FOBN77qZL_Iael6g-17" vertex="1">
          <mxGeometry x="180" width="150" height="30" as="geometry">
            <mxRectangle width="150" height="30" as="alternateBounds" />
          </mxGeometry>
        </mxCell>
        <mxCell id="Xsh8FOBN77qZL_Iael6g-43" value="3" style="shape=partialRectangle;connectable=0;fillColor=none;top=0;left=0;bottom=0;right=0;align=left;spacingLeft=6;overflow=hidden;whiteSpace=wrap;html=1;" parent="Xsh8FOBN77qZL_Iael6g-17" vertex="1">
          <mxGeometry x="330" width="150" height="30" as="geometry">
            <mxRectangle width="150" height="30" as="alternateBounds" />
          </mxGeometry>
        </mxCell>
        <mxCell id="Xsh8FOBN77qZL_Iael6g-46" value="1" style="shape=partialRectangle;connectable=0;fillColor=none;top=0;left=0;bottom=0;right=0;align=left;spacingLeft=6;overflow=hidden;whiteSpace=wrap;html=1;" parent="Xsh8FOBN77qZL_Iael6g-17" vertex="1">
          <mxGeometry x="480" width="150" height="30" as="geometry">
            <mxRectangle width="150" height="30" as="alternateBounds" />
          </mxGeometry>
        </mxCell>
        <mxCell id="Xsh8FOBN77qZL_Iael6g-20" value="" style="shape=tableRow;horizontal=0;startSize=0;swimlaneHead=0;swimlaneBody=0;fillColor=none;collapsible=0;dropTarget=0;points=[[0,0.5],[1,0.5]];portConstraint=eastwest;top=0;left=0;right=0;bottom=0;" parent="Xsh8FOBN77qZL_Iael6g-13" vertex="1">
          <mxGeometry y="90" width="630" height="30" as="geometry" />
        </mxCell>
        <mxCell id="Xsh8FOBN77qZL_Iael6g-21" value="" style="shape=partialRectangle;connectable=0;fillColor=none;top=0;left=0;bottom=0;right=0;editable=1;overflow=hidden;whiteSpace=wrap;html=1;" parent="Xsh8FOBN77qZL_Iael6g-20" vertex="1">
          <mxGeometry width="30" height="30" as="geometry">
            <mxRectangle width="30" height="30" as="alternateBounds" />
          </mxGeometry>
        </mxCell>
        <mxCell id="Xsh8FOBN77qZL_Iael6g-22" value="890yndas" style="shape=partialRectangle;connectable=0;fillColor=none;top=0;left=0;bottom=0;right=0;align=left;spacingLeft=6;overflow=hidden;whiteSpace=wrap;html=1;" parent="Xsh8FOBN77qZL_Iael6g-20" vertex="1">
          <mxGeometry x="30" width="150" height="30" as="geometry">
            <mxRectangle width="150" height="30" as="alternateBounds" />
          </mxGeometry>
        </mxCell>
        <mxCell id="Xsh8FOBN77qZL_Iael6g-28" value="30" style="shape=partialRectangle;connectable=0;fillColor=none;top=0;left=0;bottom=0;right=0;align=left;spacingLeft=6;overflow=hidden;whiteSpace=wrap;html=1;" parent="Xsh8FOBN77qZL_Iael6g-20" vertex="1">
          <mxGeometry x="180" width="150" height="30" as="geometry">
            <mxRectangle width="150" height="30" as="alternateBounds" />
          </mxGeometry>
        </mxCell>
        <mxCell id="Xsh8FOBN77qZL_Iael6g-44" value="5, 3, 4" style="shape=partialRectangle;connectable=0;fillColor=none;top=0;left=0;bottom=0;right=0;align=left;spacingLeft=6;overflow=hidden;whiteSpace=wrap;html=1;" parent="Xsh8FOBN77qZL_Iael6g-20" vertex="1">
          <mxGeometry x="330" width="150" height="30" as="geometry">
            <mxRectangle width="150" height="30" as="alternateBounds" />
          </mxGeometry>
        </mxCell>
        <mxCell id="Xsh8FOBN77qZL_Iael6g-47" value="30" style="shape=partialRectangle;connectable=0;fillColor=none;top=0;left=0;bottom=0;right=0;align=left;spacingLeft=6;overflow=hidden;whiteSpace=wrap;html=1;" parent="Xsh8FOBN77qZL_Iael6g-20" vertex="1">
          <mxGeometry x="480" width="150" height="30" as="geometry">
            <mxRectangle width="150" height="30" as="alternateBounds" />
          </mxGeometry>
        </mxCell>
      </root>
    </mxGraphModel>
  </diagram>
</mxfile>
